<svg width="50" height="316" fill="none" xmlns="http://www.w3.org/2000/svg"><circle cx="5.899" cy="310.046" r="5.899" transform="rotate(-90 5.9 310.046)" fill="#E6E6E6"/><circle cx="43.918" cy="310.046" r="5.899" transform="rotate(-90 43.918 310.046)" fill="#E6E6E6"/><circle cx="5.899" cy="157.973" r="5.899" transform="rotate(-90 5.9 157.973)" fill="#E6E6E6"/><circle cx="43.918" cy="157.973" r="5.899" transform="rotate(-90 43.918 157.973)" fill="#E6E6E6"/><circle cx="5.899" cy="5.899" r="5.899" transform="rotate(-90 5.9 5.9)" fill="#E6E6E6"/><circle cx="43.918" cy="5.899" r="5.899" transform="rotate(-90 43.918 5.9)" fill="#E6E6E6"/><circle cx="5.899" cy="234.009" r="5.899" transform="rotate(-90 5.9 234.009)" fill="#E6E6E6"/><circle cx="43.918" cy="234.009" r="5.899" transform="rotate(-90 43.918 234.009)" fill="#E6E6E6"/><circle cx="5.899" cy="81.936" r="5.899" transform="rotate(-90 5.9 81.936)" fill="#E6E6E6"/><circle cx="43.918" cy="81.936" r="5.899" transform="rotate(-90 43.918 81.936)" fill="#E6E6E6"/><circle cx="5.899" cy="272.027" r="5.899" transform="rotate(-90 5.9 272.027)" fill="#E6E6E6"/><circle cx="43.918" cy="272.027" r="5.899" transform="rotate(-90 43.918 272.027)" fill="#E6E6E6"/><circle cx="5.899" cy="119.954" r="5.899" transform="rotate(-90 5.9 119.954)" fill="#E6E6E6"/><circle cx="43.918" cy="119.954" r="5.899" transform="rotate(-90 43.918 119.954)" fill="#E6E6E6"/><circle cx="5.899" cy="195.991" r="5.899" transform="rotate(-90 5.9 195.991)" fill="#E6E6E6"/><circle cx="43.918" cy="195.991" r="5.899" transform="rotate(-90 43.918 195.991)" fill="#E6E6E6"/><circle cx="5.899" cy="43.918" r="5.899" transform="rotate(-90 5.9 43.918)" fill="#E6E6E6"/><circle cx="43.918" cy="43.918" r="5.899" transform="rotate(-90 43.918 43.918)" fill="#E6E6E6"/></svg>