<svg width="43" height="268" fill="none" xmlns="http://www.w3.org/2000/svg"><circle cx="37.96" cy="5.808" r="4.985" transform="rotate(90 37.96 5.808)" fill="#E6E6E6"/><circle cx="5.831" cy="5.808" r="4.985" transform="rotate(90 5.831 5.808)" fill="#E6E6E6"/><circle cx="37.96" cy="134.323" r="4.985" transform="rotate(90 37.96 134.323)" fill="#E6E6E6"/><circle cx="5.831" cy="134.323" r="4.985" transform="rotate(90 5.831 134.323)" fill="#E6E6E6"/><circle cx="37.96" cy="262.838" r="4.985" transform="rotate(90 37.96 262.838)" fill="#E6E6E6"/><circle cx="5.831" cy="262.838" r="4.985" transform="rotate(90 5.831 262.838)" fill="#E6E6E6"/><circle cx="37.96" cy="70.066" r="4.985" transform="rotate(90 37.96 70.066)" fill="#E6E6E6"/><circle cx="5.831" cy="70.066" r="4.985" transform="rotate(90 5.831 70.066)" fill="#E6E6E6"/><circle cx="37.96" cy="198.58" r="4.985" transform="rotate(90 37.96 198.58)" fill="#E6E6E6"/><circle cx="5.831" cy="198.58" r="4.985" transform="rotate(90 5.831 198.58)" fill="#E6E6E6"/><circle cx="37.96" cy="37.937" r="4.985" transform="rotate(90 37.96 37.937)" fill="#E6E6E6"/><circle cx="5.831" cy="37.937" r="4.985" transform="rotate(90 5.831 37.937)" fill="#E6E6E6"/><circle cx="37.96" cy="166.452" r="4.985" transform="rotate(90 37.96 166.452)" fill="#E6E6E6"/><circle cx="5.831" cy="166.452" r="4.985" transform="rotate(90 5.831 166.452)" fill="#E6E6E6"/><circle cx="37.96" cy="102.194" r="4.985" transform="rotate(90 37.96 102.194)" fill="#E6E6E6"/><circle cx="5.831" cy="102.194" r="4.985" transform="rotate(90 5.831 102.194)" fill="#E6E6E6"/><circle cx="37.96" cy="230.709" r="4.985" transform="rotate(90 37.96 230.709)" fill="#E6E6E6"/><circle cx="5.831" cy="230.709" r="4.985" transform="rotate(90 5.831 230.709)" fill="#E6E6E6"/></svg>