<svg width="554" height="337" fill="none" xmlns="http://www.w3.org/2000/svg"><path d="M47.415 2.261c0 1.13-1.21 2.261-2.418 2.261-1.209 0-2.418-1.13-2.418-2.26C42.58 1.13 43.385 0 44.997 0c1.209 0 2.418 1.13 2.418 2.261zm51.579 0c0 1.13-1.21 2.261-2.418 2.261-1.209 0-2.418-1.13-2.418-2.26C94.158 1.13 95.368 0 96.576 0c1.209 0 2.418 1.13 2.418 2.261zm51.58 0c0 1.13-1.209 2.261-2.418 2.261s-2.418-1.13-2.418-2.26c0-1.131 1.209-2.262 2.418-2.262s2.418 1.13 2.418 2.261zm51.176 0c0 1.13-1.209 2.261-2.418 2.261s-2.418-1.13-2.418-2.26c0-1.131 1.209-2.262 2.418-2.262s2.418 1.13 2.418 2.261zm51.58 0c0 1.13-1.209 2.261-2.418 2.261s-2.418-.753-2.418-2.26c0-1.131 1.209-2.262 2.418-2.262s2.418 1.13 2.418 2.261zm51.579 0c0 1.13-1.209 2.261-2.418 2.261s-2.821-.753-2.821-2.26c0-1.131 1.209-2.262 2.418-2.262s2.821 1.13 2.821 2.261zm51.176 0c0 1.13-1.209 2.261-2.418 2.261s-2.417-1.13-2.417-2.26c0-1.131 1.208-2.262 2.417-2.262 1.612 0 2.418 1.13 2.418 2.261zm51.579 0c0 1.13-1.209 2.261-2.418 2.261-1.208 0-2.417-1.13-2.417-2.26 0-1.131 1.209-2.262 2.417-2.262 1.209 0 2.418 1.13 2.418 2.261zm51.58 0c0 1.13-1.209 2.261-2.418 2.261s-2.418-1.13-2.418-2.26c0-1.131 1.209-2.262 2.418-2.262s2.418 1.13 2.418 2.261zm51.579 0c0 1.13-1.209 2.261-2.417 2.261-1.209 0-2.418-1.13-2.418-2.26 0-1.131 1.209-2.262 2.418-2.262 1.208 0 2.417 1.13 2.417 2.261zM47.415 50.498c0 1.131-1.21 2.262-2.418 2.262-1.209 0-2.418-1.131-2.418-2.262 0-1.13 1.209-2.26 2.418-2.26s2.418.753 2.418 2.26zm51.579 0c0 1.131-1.21 2.262-2.418 2.262-1.209 0-2.418-1.131-2.418-2.262 0-1.13 1.21-2.26 2.418-2.26 1.209 0 2.418.753 2.418 2.26zm51.58 0c0 1.131-1.209 2.262-2.418 2.262s-2.418-1.131-2.418-2.262c0-1.13 1.209-2.26 2.418-2.26s2.418.753 2.418 2.26zm51.176 0c0 1.131-1.209 2.262-2.418 2.262s-2.418-1.131-2.418-2.262c0-1.13 1.209-2.26 2.418-2.26s2.418.753 2.418 2.26zm51.58 0c0 1.131-1.209 2.262-2.418 2.262s-2.418-1.131-2.418-2.262c0-1.13 1.209-2.26 2.418-2.26s2.418.753 2.418 2.26zm51.579 0c0 1.131-1.209 2.262-2.418 2.262s-2.418-1.131-2.418-2.262c0-1.13 1.209-2.26 2.418-2.26s2.418.753 2.418 2.26zm51.176 0c0 1.131-1.209 2.262-2.418 2.262s-2.417-1.131-2.417-2.262c0-1.13 1.208-2.26 2.417-2.26 1.612 0 2.418.753 2.418 2.26zm51.579 0c0 1.131-1.209 2.262-2.418 2.262-1.208 0-2.417-1.131-2.417-2.262 0-1.13 1.209-2.26 2.417-2.26 1.209 0 2.418.753 2.418 2.26zm51.58 0c0 1.131-1.209 2.262-2.418 2.262s-2.418-1.131-2.418-2.262c0-1.13 1.209-2.26 2.418-2.26s2.418.753 2.418 2.26zm51.579 0c0 1.131-1.209 2.262-2.417 2.262-1.209 0-2.418-1.131-2.418-2.262 0-1.13 1.209-2.26 2.418-2.26 1.208 0 2.417.753 2.417 2.26zM47.415 98.735c0 1.13-1.21 2.261-2.418 2.261-1.209 0-2.418-1.13-2.418-2.261 0-1.131 1.209-2.262 2.418-2.262 1.209-.376 2.418.754 2.418 2.262zm51.579 0c0 1.13-1.21 2.261-2.418 2.261-1.209 0-2.418-1.13-2.418-2.261 0-1.131 1.21-2.262 2.418-2.262 1.209-.376 2.418.754 2.418 2.262zm51.58 0c0 1.13-1.209 2.261-2.418 2.261s-2.418-1.13-2.418-2.261c0-1.131 1.209-2.262 2.418-2.262 1.209-.376 2.418.754 2.418 2.262zm51.176 0c0 1.13-1.209 2.261-2.418 2.261s-2.418-1.13-2.418-2.261c0-1.131 1.209-2.262 2.418-2.262 1.209-.376 2.418.754 2.418 2.262zm51.58.001c0 1.13-1.209 2.261-2.418 2.261s-2.418-1.13-2.418-2.261c0-1.13 1.209-2.261 2.418-2.261s2.418.753 2.418 2.26zm51.579 0c0 1.13-1.209 2.261-2.418 2.261s-2.418-1.13-2.418-2.261c0-1.13 1.209-2.261 2.418-2.261s2.418.753 2.418 2.26zm51.176-.001c0 1.13-1.209 2.261-2.418 2.261s-2.417-1.13-2.417-2.261c0-1.131 1.208-2.262 2.417-2.262 1.612-.376 2.418.754 2.418 2.262zm51.579 0c0 1.13-1.209 2.261-2.418 2.261-1.208 0-2.417-1.13-2.417-2.261 0-1.131 1.209-2.262 2.417-2.262 1.209-.376 2.418.754 2.418 2.262zm51.58 0c0 1.13-1.209 2.261-2.418 2.261s-2.418-1.13-2.418-2.261c0-1.131 1.209-2.262 2.418-2.262 1.209-.376 2.418.754 2.418 2.262zm51.579 0c0 1.13-1.209 2.261-2.417 2.261-1.209 0-2.418-1.13-2.418-2.261 0-1.131 1.209-2.262 2.418-2.262 1.208-.376 2.417.754 2.417 2.262zm-463.408 47.86c0 1.131-1.21 2.261-2.418 2.261-1.209 0-2.418-1.13-2.418-2.261 0-1.13 1.209-2.261 2.418-2.261s2.418 1.131 2.418 2.261zm51.579 0c0 1.131-1.21 2.261-2.418 2.261-1.209 0-2.418-1.13-2.418-2.261 0-1.13 1.21-2.261 2.418-2.261 1.209 0 2.418 1.131 2.418 2.261zm51.58 0c0 1.131-1.209 2.261-2.418 2.261s-2.418-1.13-2.418-2.261c0-1.13 1.209-2.261 2.418-2.261s2.418 1.131 2.418 2.261zm51.176 0c0 1.131-1.209 2.261-2.418 2.261s-2.418-1.13-2.418-2.261c0-1.13 1.209-2.261 2.418-2.261s2.418 1.131 2.418 2.261zm51.58 0c0 1.131-1.209 2.261-2.418 2.261s-2.418-1.13-2.418-2.261c0-1.13 1.209-2.261 2.418-2.261s2.418 1.131 2.418 2.261zm51.579 0c0 1.131-1.209 2.261-2.418 2.261s-2.418-1.13-2.418-2.261c0-1.13 1.209-2.261 2.418-2.261s2.418 1.131 2.418 2.261zm51.176 0c0 1.131-1.209 2.261-2.418 2.261s-2.417-1.13-2.417-2.261c0-1.13 1.208-2.261 2.417-2.261 1.612 0 2.418 1.131 2.418 2.261zm51.579 0c0 1.131-1.209 2.261-2.418 2.261-1.208 0-2.417-1.13-2.417-2.261 0-1.13 1.209-2.261 2.417-2.261 1.209 0 2.418 1.131 2.418 2.261zm51.58 0c0 1.131-1.209 2.261-2.418 2.261s-2.418-1.13-2.418-2.261c0-1.13 1.209-2.261 2.418-2.261s2.418 1.131 2.418 2.261zm51.579 0c0 1.131-1.209 2.261-2.417 2.261-1.209 0-2.418-1.13-2.418-2.261 0-1.13 1.209-2.261 2.418-2.261 1.208 0 2.417 1.131 2.417 2.261zM47.415 194.833c0 1.131-1.21 2.262-2.418 2.262-1.209 0-2.418-1.131-2.418-2.262 0-1.13 1.209-2.261 2.418-2.261s2.418 1.131 2.418 2.261zm51.579 0c0 1.131-1.21 2.262-2.418 2.262-1.209 0-2.418-1.131-2.418-2.262 0-1.13 1.21-2.261 2.418-2.261 1.209 0 2.418 1.131 2.418 2.261zm51.58 0c0 1.131-1.209 2.262-2.418 2.262s-2.418-1.131-2.418-2.262c0-1.13 1.209-2.261 2.418-2.261s2.418 1.131 2.418 2.261zm51.176 0c0 1.131-1.209 2.262-2.418 2.262s-2.418-1.131-2.418-2.262c0-1.13 1.209-2.261 2.418-2.261s2.418 1.131 2.418 2.261zm51.58 0c0 1.131-1.209 2.262-2.418 2.262s-2.418-1.131-2.418-2.262c0-1.13 1.209-2.261 2.418-2.261s2.418 1.131 2.418 2.261zm51.579 0c0 1.131-1.209 2.262-2.418 2.262s-2.418-1.131-2.418-2.262c0-1.13 1.209-2.261 2.418-2.261s2.418 1.131 2.418 2.261zm51.176 0c0 1.131-1.209 2.262-2.418 2.262s-2.417-1.131-2.417-2.262c0-1.13 1.208-2.261 2.417-2.261 1.612 0 2.418 1.131 2.418 2.261zm51.579 0c0 1.131-1.209 2.262-2.418 2.262-1.208 0-2.417-1.131-2.417-2.262 0-1.13 1.209-2.261 2.417-2.261 1.209 0 2.418 1.131 2.418 2.261zm51.58 0c0 1.131-1.209 2.262-2.418 2.262s-2.418-1.131-2.418-2.262c0-1.13 1.209-2.261 2.418-2.261s2.418 1.131 2.418 2.261zm51.579 0c0 1.131-1.209 2.262-2.417 2.262-1.209 0-2.418-1.131-2.418-2.262 0-1.13 1.209-2.261 2.418-2.261 1.208 0 2.417 1.131 2.417 2.261zM47.415 243.07c0 1.13-1.21 2.261-2.418 2.261-1.209 0-2.418-1.131-2.418-2.261 0-1.131 1.209-2.261 2.418-2.261s2.418.753 2.418 2.261zm51.579 0c0 1.13-1.21 2.261-2.418 2.261-1.209 0-2.418-1.131-2.418-2.261 0-1.131 1.21-2.261 2.418-2.261 1.209 0 2.418.753 2.418 2.261zm51.58 0c0 1.13-1.209 2.261-2.418 2.261s-2.418-1.131-2.418-2.261c0-1.131 1.209-2.261 2.418-2.261s2.418.753 2.418 2.261zm51.176 0c0 1.13-1.209 2.261-2.418 2.261s-2.418-1.131-2.418-2.261c0-1.131 1.209-2.261 2.418-2.261s2.418.753 2.418 2.261zm51.58 0c0 1.13-1.209 2.261-2.418 2.261s-2.418-1.131-2.418-2.261c0-1.131 1.209-2.261 2.418-2.261s2.418.753 2.418 2.261zm51.579 0c0 1.13-1.209 2.261-2.418 2.261s-2.418-1.131-2.418-2.261c0-1.131 1.209-2.261 2.418-2.261s2.418.753 2.418 2.261zm51.176 0c0 1.13-1.209 2.261-2.418 2.261s-2.417-1.131-2.417-2.261c0-1.131 1.208-2.261 2.417-2.261 1.612 0 2.418.753 2.418 2.261zm51.579 0c0 1.13-1.209 2.261-2.418 2.261-1.208 0-2.417-1.131-2.417-2.261 0-1.131 1.209-2.261 2.417-2.261 1.209 0 2.418.753 2.418 2.261zm51.58 0c0 1.13-1.209 2.261-2.418 2.261s-2.418-1.131-2.418-2.261c0-1.131 1.209-2.261 2.418-2.261s2.418.753 2.418 2.261zm51.579 0c0 1.13-1.209 2.261-2.417 2.261-1.209 0-2.418-1.131-2.418-2.261 0-1.131 1.209-2.261 2.418-2.261 1.208 0 2.417.753 2.417 2.261zM47.415 291.307c0 1.13-1.21 2.261-2.418 2.261-1.209 0-2.418-1.131-2.418-2.261 0-1.131 1.209-2.261 2.418-2.261 1.209-.377 2.418.753 2.418 2.261zm51.579 0c0 1.13-1.21 2.261-2.418 2.261-1.209 0-2.418-1.131-2.418-2.261 0-1.131 1.21-2.261 2.418-2.261 1.209-.377 2.418.753 2.418 2.261zm51.58 0c0 1.13-1.209 2.261-2.418 2.261s-2.418-1.131-2.418-2.261c0-1.131 1.209-2.261 2.418-2.261 1.209-.377 2.418.753 2.418 2.261zm51.176 0c0 1.13-1.209 2.261-2.418 2.261s-2.418-1.131-2.418-2.261c0-1.131 1.209-2.261 2.418-2.261 1.209-.377 2.418.753 2.418 2.261zm51.58 0c0 1.131-1.209 2.261-2.418 2.261s-2.418-1.13-2.418-2.261c0-1.131 1.209-2.261 2.418-2.261s2.418.754 2.418 2.261zm51.579 0c0 1.131-1.209 2.261-2.418 2.261s-2.418-1.13-2.418-2.261c0-1.131 1.209-2.261 2.418-2.261s2.418.754 2.418 2.261zm51.176 0c0 1.13-1.209 2.261-2.418 2.261s-2.417-1.131-2.417-2.261c0-1.131 1.208-2.261 2.417-2.261 1.612-.377 2.418.753 2.418 2.261zm51.579 0c0 1.13-1.209 2.261-2.418 2.261-1.208 0-2.417-1.131-2.417-2.261 0-1.131 1.209-2.261 2.417-2.261 1.209-.377 2.418.753 2.418 2.261zm51.58 0c0 1.13-1.209 2.261-2.418 2.261s-2.418-1.131-2.418-2.261c0-1.131 1.209-2.261 2.418-2.261 1.209-.377 2.418.753 2.418 2.261zm51.579 0c0 1.13-1.209 2.261-2.417 2.261-1.209 0-2.418-1.131-2.418-2.261 0-1.131 1.209-2.261 2.418-2.261 1.208-.377 2.417.753 2.417 2.261zm-463.408 47.86c0 1.131-1.21 2.261-2.418 2.261-1.209 0-2.418-1.13-2.418-2.261 0-1.13 1.209-2.261 2.418-2.261s2.418 1.131 2.418 2.261zm51.579 0c0 1.131-1.21 2.261-2.418 2.261-1.209 0-2.418-1.13-2.418-2.261 0-1.13 1.21-2.261 2.418-2.261 1.209 0 2.418 1.131 2.418 2.261zm51.58 0c0 1.131-1.209 2.261-2.418 2.261s-2.418-1.13-2.418-2.261c0-1.13 1.209-2.261 2.418-2.261s2.418 1.131 2.418 2.261zm51.176 0c0 1.131-1.209 2.261-2.418 2.261s-2.418-1.13-2.418-2.261c0-1.13 1.209-2.261 2.418-2.261s2.418 1.131 2.418 2.261zm51.58 0c0 1.131-1.209 2.261-2.418 2.261s-2.418-1.13-2.418-2.261c0-1.13 1.209-2.261 2.418-2.261s2.418 1.131 2.418 2.261zm51.579 0c0 1.131-1.209 2.261-2.418 2.261s-2.418-1.13-2.418-2.261c0-1.13 1.209-2.261 2.418-2.261s2.418 1.131 2.418 2.261zm51.176 0c0 1.131-1.209 2.261-2.418 2.261s-2.417-1.13-2.417-2.261c0-1.13 1.208-2.261 2.417-2.261 1.612 0 2.418 1.131 2.418 2.261zm51.579 0c0 1.131-1.209 2.261-2.418 2.261-1.208 0-2.417-1.13-2.417-2.261 0-1.13 1.209-2.261 2.417-2.261 1.209 0 2.418 1.131 2.418 2.261zm51.58 0c0 1.131-1.209 2.261-2.418 2.261s-2.418-1.13-2.418-2.261c0-1.13 1.209-2.261 2.418-2.261s2.418 1.131 2.418 2.261zm51.579 0c0 1.131-1.209 2.261-2.417 2.261-1.209 0-2.418-1.13-2.418-2.261 0-1.13 1.209-2.261 2.418-2.261 1.208 0 2.417 1.131 2.417 2.261z" fill="#E5E5E5"/></svg>