<svg width="571" height="534" fill="none" xmlns="http://www.w3.org/2000/svg"><path d="M4.836 2.261c0 1.508-.806 2.261-2.418 2.261S0 3.77 0 2.262C0 1.13 1.209 0 2.418 0s2.418 1.13 2.418 2.261zm51.579 0c0 1.13-1.21 2.261-2.418 2.261-1.209 0-2.418-1.13-2.418-2.26C51.58 1.13 52.385 0 53.997 0c1.209 0 2.418 1.13 2.418 2.261zm51.579 0c0 1.13-1.209 2.261-2.418 2.261s-2.418-1.13-2.418-2.26c0-1.131 1.209-2.262 2.418-2.262s2.418 1.13 2.418 2.261zm51.58 0c0 1.13-1.209 2.261-2.418 2.261s-2.418-1.13-2.418-2.26c0-1.131 1.209-2.262 2.418-2.262s2.418 1.13 2.418 2.261zm51.176 0c0 1.13-1.209 2.261-2.418 2.261s-2.418-1.13-2.418-2.26c0-1.131 1.209-2.262 2.418-2.262s2.418 1.13 2.418 2.261zm51.58 0c0 1.13-1.209 2.261-2.418 2.261s-2.418-.753-2.418-2.26c0-1.131 1.209-2.262 2.418-2.262s2.418 1.13 2.418 2.261zm51.579 0c0 1.13-1.209 2.261-2.418 2.261s-2.821-.753-2.821-2.26c0-1.131 1.209-2.262 2.418-2.262s2.821 1.13 2.821 2.261zm51.176 0c0 1.13-1.209 2.261-2.418 2.261s-2.417-1.13-2.417-2.26c0-1.131 1.208-2.262 2.417-2.262 1.612 0 2.418 1.13 2.418 2.261zm51.579 0c0 1.13-1.209 2.261-2.418 2.261-1.208 0-2.417-1.13-2.417-2.26 0-1.131 1.209-2.262 2.417-2.262 1.209 0 2.418 1.13 2.418 2.261zm51.58 0c0 1.13-1.209 2.261-2.418 2.261s-2.418-1.13-2.418-2.26c0-1.131 1.209-2.262 2.418-2.262s2.418 1.13 2.418 2.261zm51.579 0c0 1.13-1.209 2.261-2.417 2.261-1.209 0-2.418-1.13-2.418-2.26 0-1.131 1.209-2.262 2.418-2.262 1.208 0 2.417 1.13 2.417 2.261zm51.177 0c0 1.13-1.209 2.261-2.418 2.261s-2.417-1.13-2.417-2.26c0-1.131 1.208-2.262 2.417-2.262C570.194 0 571 1.13 571 2.261zM4.836 50.498c0 1.131-.806 2.262-2.418 2.262S0 51.629 0 50.498c0-1.13 1.209-2.26 2.418-2.26s2.418.753 2.418 2.26zm51.579 0c0 1.131-1.21 2.262-2.418 2.262-1.209 0-2.418-1.131-2.418-2.262 0-1.13 1.209-2.26 2.418-2.26s2.418.753 2.418 2.26zm51.579 0c0 1.131-1.209 2.262-2.418 2.262s-2.418-1.131-2.418-2.262c0-1.13 1.209-2.26 2.418-2.26s2.418.753 2.418 2.26zm51.58 0c0 1.131-1.209 2.262-2.418 2.262s-2.418-1.131-2.418-2.262c0-1.13 1.209-2.26 2.418-2.26s2.418.753 2.418 2.26zm51.176 0c0 1.131-1.209 2.262-2.418 2.262s-2.418-1.131-2.418-2.262c0-1.13 1.209-2.26 2.418-2.26s2.418.753 2.418 2.26zm51.58 0c0 1.131-1.209 2.262-2.418 2.262s-2.418-1.131-2.418-2.262c0-1.13 1.209-2.26 2.418-2.26s2.418.753 2.418 2.26zm51.579 0c0 1.131-1.209 2.262-2.418 2.262s-2.418-1.131-2.418-2.262c0-1.13 1.209-2.26 2.418-2.26s2.418.753 2.418 2.26zm51.176 0c0 1.131-1.209 2.262-2.418 2.262s-2.417-1.131-2.417-2.262c0-1.13 1.208-2.26 2.417-2.26 1.612 0 2.418.753 2.418 2.26zm51.579 0c0 1.131-1.209 2.262-2.418 2.262-1.208 0-2.417-1.131-2.417-2.262 0-1.13 1.209-2.26 2.417-2.26 1.209 0 2.418.753 2.418 2.26zm51.58 0c0 1.131-1.209 2.262-2.418 2.262s-2.418-1.131-2.418-2.262c0-1.13 1.209-2.26 2.418-2.26s2.418.753 2.418 2.26zm51.579 0c0 1.131-1.209 2.262-2.417 2.262-1.209 0-2.418-1.131-2.418-2.262 0-1.13 1.209-2.26 2.418-2.26 1.208 0 2.417.753 2.417 2.26zm51.177 0c0 1.131-1.209 2.262-2.418 2.262s-2.417-1.131-2.417-2.262c0-1.13 1.208-2.26 2.417-2.26 1.612 0 2.418.753 2.418 2.26zM4.836 98.736c0 1.13-1.21 2.261-2.418 2.261-1.21 0-2.418-1.13-2.418-2.261 0-1.13 1.209-2.261 2.418-2.261s2.418.753 2.418 2.26zm51.579-.001c0 1.13-1.21 2.261-2.418 2.261-1.209 0-2.418-1.13-2.418-2.261 0-1.13 1.209-2.261 2.418-2.261 1.209-.377 2.418.754 2.418 2.261zm51.579 0c0 1.13-1.209 2.261-2.418 2.261s-2.418-1.13-2.418-2.261c0-1.13 1.209-2.261 2.418-2.261 1.209-.377 2.418.754 2.418 2.261zm51.58 0c0 1.13-1.209 2.261-2.418 2.261s-2.418-1.13-2.418-2.261c0-1.13 1.209-2.261 2.418-2.261 1.209-.377 2.418.754 2.418 2.261zm51.176 0c0 1.13-1.209 2.261-2.418 2.261s-2.418-1.13-2.418-2.261c0-1.13 1.209-2.261 2.418-2.261 1.209-.377 2.418.754 2.418 2.261zm51.58.001c0 1.13-1.209 2.261-2.418 2.261s-2.418-1.13-2.418-2.261c0-1.13 1.209-2.261 2.418-2.261s2.418.753 2.418 2.26zm51.579 0c0 1.13-1.209 2.261-2.418 2.261s-2.418-1.13-2.418-2.261c0-1.13 1.209-2.261 2.418-2.261s2.418.753 2.418 2.26zm51.176-.001c0 1.13-1.209 2.261-2.418 2.261s-2.417-1.13-2.417-2.261c0-1.13 1.208-2.261 2.417-2.261 1.612-.377 2.418.754 2.418 2.261zm51.579 0c0 1.13-1.209 2.261-2.418 2.261-1.208 0-2.417-1.13-2.417-2.261 0-1.13 1.209-2.261 2.417-2.261 1.209-.377 2.418.754 2.418 2.261zm51.58 0c0 1.13-1.209 2.261-2.418 2.261s-2.418-1.13-2.418-2.261c0-1.13 1.209-2.261 2.418-2.261 1.209-.377 2.418.754 2.418 2.261zm51.579 0c0 1.13-1.209 2.261-2.417 2.261-1.209 0-2.418-1.13-2.418-2.261 0-1.13 1.209-2.261 2.418-2.261 1.208-.377 2.417.754 2.417 2.261zm51.177 0c0 1.13-1.209 2.261-2.418 2.261s-2.417-1.13-2.417-2.261c0-1.13 1.208-2.261 2.417-2.261 1.612-.377 2.418.754 2.418 2.261zM4.836 146.596c0 1.13-1.21 2.261-2.418 2.261-1.21 0-2.418-.754-2.418-2.261 0-1.131 1.209-2.262 2.418-2.262s2.418 1.131 2.418 2.262zm51.579 0c0 1.13-1.21 2.261-2.418 2.261-1.209 0-2.418-1.131-2.418-2.261 0-1.131 1.209-2.262 2.418-2.262s2.418 1.131 2.418 2.262zm51.579 0c0 1.13-1.209 2.261-2.418 2.261s-2.418-1.131-2.418-2.261c0-1.131 1.209-2.262 2.418-2.262s2.418 1.131 2.418 2.262zm51.58 0c0 1.13-1.209 2.261-2.418 2.261s-2.418-1.131-2.418-2.261c0-1.131 1.209-2.262 2.418-2.262s2.418 1.131 2.418 2.262zm51.176 0c0 1.13-1.209 2.261-2.418 2.261s-2.418-1.131-2.418-2.261c0-1.131 1.209-2.262 2.418-2.262s2.418 1.131 2.418 2.262zm51.58 0c0 1.13-1.209 2.261-2.418 2.261s-2.418-1.131-2.418-2.261c0-1.131 1.209-2.262 2.418-2.262s2.418 1.131 2.418 2.262zm51.579 0c0 1.13-1.209 2.261-2.418 2.261s-2.418-1.131-2.418-2.261c0-1.131 1.209-2.262 2.418-2.262s2.418 1.131 2.418 2.262zm51.176 0c0 1.13-1.209 2.261-2.418 2.261s-2.417-1.131-2.417-2.261c0-1.131 1.208-2.262 2.417-2.262 1.612 0 2.418 1.131 2.418 2.262zm51.579 0c0 1.13-1.209 2.261-2.418 2.261-1.208 0-2.417-1.131-2.417-2.261 0-1.131 1.209-2.262 2.417-2.262 1.209 0 2.418 1.131 2.418 2.262zm51.58 0c0 1.13-1.209 2.261-2.418 2.261s-2.418-1.131-2.418-2.261c0-1.131 1.209-2.262 2.418-2.262s2.418 1.131 2.418 2.262zm51.579 0c0 1.13-1.209 2.261-2.417 2.261-1.209 0-2.418-1.131-2.418-2.261 0-1.131 1.209-2.262 2.418-2.262 1.208 0 2.417 1.131 2.417 2.262zm51.177 0c0 1.13-1.209 2.261-2.418 2.261s-2.417-1.131-2.417-2.261c0-1.131 1.208-2.262 2.417-2.262 1.612 0 2.418 1.131 2.418 2.262zM4.836 194.833c0 1.13-1.21 2.261-2.418 2.261-1.21 0-2.418-1.131-2.418-2.261 0-1.131 1.209-2.261 2.418-2.261s2.418 1.13 2.418 2.261zm51.579 0c0 1.13-1.21 2.261-2.418 2.261-1.209 0-2.418-1.131-2.418-2.261 0-1.131 1.209-2.261 2.418-2.261s2.418 1.13 2.418 2.261zm51.579 0c0 1.13-1.209 2.261-2.418 2.261s-2.418-1.131-2.418-2.261c0-1.131 1.209-2.261 2.418-2.261s2.418 1.13 2.418 2.261zm51.58 0c0 1.13-1.209 2.261-2.418 2.261s-2.418-1.131-2.418-2.261c0-1.131 1.209-2.261 2.418-2.261s2.418 1.13 2.418 2.261zm51.176 0c0 1.13-1.209 2.261-2.418 2.261s-2.418-1.131-2.418-2.261c0-1.131 1.209-2.261 2.418-2.261s2.418 1.13 2.418 2.261zm51.58 0c0 1.13-1.209 2.261-2.418 2.261s-2.418-1.131-2.418-2.261c0-1.131 1.209-2.261 2.418-2.261s2.418 1.13 2.418 2.261zm51.579 0c0 1.13-1.209 2.261-2.418 2.261s-2.418-1.131-2.418-2.261c0-1.131 1.209-2.261 2.418-2.261s2.418 1.13 2.418 2.261zm51.176 0c0 1.13-1.209 2.261-2.418 2.261s-2.417-1.131-2.417-2.261c0-1.131 1.208-2.261 2.417-2.261 1.612 0 2.418 1.13 2.418 2.261zm51.579 0c0 1.13-1.209 2.261-2.418 2.261-1.208 0-2.417-1.131-2.417-2.261 0-1.131 1.209-2.261 2.417-2.261 1.209 0 2.418 1.13 2.418 2.261zm51.58 0c0 1.13-1.209 2.261-2.418 2.261s-2.418-1.131-2.418-2.261c0-1.131 1.209-2.261 2.418-2.261s2.418 1.13 2.418 2.261zm51.579 0c0 1.13-1.209 2.261-2.417 2.261-1.209 0-2.418-1.131-2.418-2.261 0-1.131 1.209-2.261 2.418-2.261 1.208 0 2.417 1.13 2.417 2.261zm51.177 0c0 1.13-1.209 2.261-2.418 2.261s-2.417-1.131-2.417-2.261c0-1.131 1.208-2.261 2.417-2.261 1.612 0 2.418 1.13 2.418 2.261zM4.836 243.069c0 1.131-1.21 2.261-2.418 2.261-1.21 0-2.418-1.13-2.418-2.261 0-1.13 1.209-2.261 2.418-2.261s2.418.754 2.418 2.261zm51.579 0c0 1.131-1.21 2.261-2.418 2.261-1.209 0-2.418-1.13-2.418-2.261 0-1.13 1.209-2.261 2.418-2.261s2.418.754 2.418 2.261zm51.579 0c0 1.131-1.209 2.261-2.418 2.261s-2.418-1.13-2.418-2.261c0-1.13 1.209-2.261 2.418-2.261s2.418.754 2.418 2.261zm51.58 0c0 1.131-1.209 2.261-2.418 2.261s-2.418-1.13-2.418-2.261c0-1.13 1.209-2.261 2.418-2.261s2.418.754 2.418 2.261zm51.176 0c0 1.131-1.209 2.261-2.418 2.261s-2.418-1.13-2.418-2.261c0-1.13 1.209-2.261 2.418-2.261s2.418.754 2.418 2.261zm51.58 0c0 1.131-1.209 2.261-2.418 2.261s-2.418-1.13-2.418-2.261c0-1.13 1.209-2.261 2.418-2.261s2.418.754 2.418 2.261zm51.579 0c0 1.131-1.209 2.261-2.418 2.261s-2.418-1.13-2.418-2.261c0-1.13 1.209-2.261 2.418-2.261s2.418.754 2.418 2.261zm51.176 0c0 1.131-1.209 2.261-2.418 2.261s-2.417-1.13-2.417-2.261c0-1.13 1.208-2.261 2.417-2.261 1.612 0 2.418.754 2.418 2.261zm51.579 0c0 1.131-1.209 2.261-2.418 2.261-1.208 0-2.417-1.13-2.417-2.261 0-1.13 1.209-2.261 2.417-2.261 1.209 0 2.418.754 2.418 2.261zm51.58 0c0 1.131-1.209 2.261-2.418 2.261s-2.418-1.13-2.418-2.261c0-1.13 1.209-2.261 2.418-2.261s2.418.754 2.418 2.261zm51.579 0c0 1.131-1.209 2.261-2.417 2.261-1.209 0-2.418-1.13-2.418-2.261 0-1.13 1.209-2.261 2.418-2.261 1.208 0 2.417.754 2.417 2.261zm51.177 0c0 1.131-1.209 2.261-2.418 2.261s-2.417-1.13-2.417-2.261c0-1.13 1.208-2.261 2.417-2.261 1.612 0 2.418.754 2.418 2.261zM4.836 291.307c0 1.131-1.21 2.261-2.418 2.261-1.21 0-2.418-1.13-2.418-2.261 0-1.131 1.209-2.261 2.418-2.261s2.418.754 2.418 2.261zm51.579 0c0 1.131-1.21 2.261-2.418 2.261-1.209 0-2.418-1.13-2.418-2.261 0-1.13 1.209-2.261 2.418-2.261 1.209-.377 2.418.754 2.418 2.261zm51.579 0c0 1.131-1.209 2.261-2.418 2.261s-2.418-1.13-2.418-2.261c0-1.13 1.209-2.261 2.418-2.261 1.209-.377 2.418.754 2.418 2.261zm51.58 0c0 1.131-1.209 2.261-2.418 2.261s-2.418-1.13-2.418-2.261c0-1.13 1.209-2.261 2.418-2.261 1.209-.377 2.418.754 2.418 2.261zm51.176 0c0 1.131-1.209 2.261-2.418 2.261s-2.418-1.13-2.418-2.261c0-1.13 1.209-2.261 2.418-2.261 1.209-.377 2.418.754 2.418 2.261zm51.58 0c0 1.131-1.209 2.261-2.418 2.261s-2.418-1.13-2.418-2.261c0-1.131 1.209-2.261 2.418-2.261s2.418.754 2.418 2.261zm51.579 0c0 1.131-1.209 2.261-2.418 2.261s-2.418-1.13-2.418-2.261c0-1.131 1.209-2.261 2.418-2.261s2.418.754 2.418 2.261zm51.176 0c0 1.131-1.209 2.261-2.418 2.261s-2.417-1.13-2.417-2.261c0-1.13 1.208-2.261 2.417-2.261 1.612-.377 2.418.754 2.418 2.261zm51.579 0c0 1.131-1.209 2.261-2.418 2.261-1.208 0-2.417-1.13-2.417-2.261 0-1.13 1.209-2.261 2.417-2.261 1.209-.377 2.418.754 2.418 2.261zm51.58 0c0 1.131-1.209 2.261-2.418 2.261s-2.418-1.13-2.418-2.261c0-1.13 1.209-2.261 2.418-2.261 1.209-.377 2.418.754 2.418 2.261zm51.579 0c0 1.131-1.209 2.261-2.417 2.261-1.209 0-2.418-1.13-2.418-2.261 0-1.13 1.209-2.261 2.418-2.261 1.208-.377 2.417.754 2.417 2.261zm51.177 0c0 1.131-1.209 2.261-2.418 2.261s-2.417-1.13-2.417-2.261c0-1.13 1.208-2.261 2.417-2.261 1.612-.377 2.418.754 2.418 2.261zM4.836 339.167c0 1.131-1.21 2.261-2.418 2.261-1.21 0-2.418-.753-2.418-2.261 0-1.13 1.209-2.261 2.418-2.261s2.418 1.131 2.418 2.261zm51.579 0c0 1.131-1.21 2.261-2.418 2.261-1.209 0-2.418-1.13-2.418-2.261 0-1.13 1.209-2.261 2.418-2.261s2.418 1.131 2.418 2.261zm51.579 0c0 1.131-1.209 2.261-2.418 2.261s-2.418-1.13-2.418-2.261c0-1.13 1.209-2.261 2.418-2.261s2.418 1.131 2.418 2.261zm51.58 0c0 1.131-1.209 2.261-2.418 2.261s-2.418-1.13-2.418-2.261c0-1.13 1.209-2.261 2.418-2.261s2.418 1.131 2.418 2.261zm51.176 0c0 1.131-1.209 2.261-2.418 2.261s-2.418-1.13-2.418-2.261c0-1.13 1.209-2.261 2.418-2.261s2.418 1.131 2.418 2.261zm51.58 0c0 1.131-1.209 2.261-2.418 2.261s-2.418-1.13-2.418-2.261c0-1.13 1.209-2.261 2.418-2.261s2.418 1.131 2.418 2.261zm51.579 0c0 1.131-1.209 2.261-2.418 2.261s-2.418-1.13-2.418-2.261c0-1.13 1.209-2.261 2.418-2.261s2.418 1.131 2.418 2.261zm51.176 0c0 1.131-1.209 2.261-2.418 2.261s-2.417-1.13-2.417-2.261c0-1.13 1.208-2.261 2.417-2.261 1.612 0 2.418 1.131 2.418 2.261zm51.579 0c0 1.131-1.209 2.261-2.418 2.261-1.208 0-2.417-1.13-2.417-2.261 0-1.13 1.209-2.261 2.417-2.261 1.209 0 2.418 1.131 2.418 2.261zm51.58 0c0 1.131-1.209 2.261-2.418 2.261s-2.418-1.13-2.418-2.261c0-1.13 1.209-2.261 2.418-2.261s2.418 1.131 2.418 2.261zm51.579 0c0 1.131-1.209 2.261-2.417 2.261-1.209 0-2.418-1.13-2.418-2.261 0-1.13 1.209-2.261 2.418-2.261 1.208 0 2.417 1.131 2.417 2.261zm51.177 0c0 1.131-1.209 2.261-2.418 2.261s-2.417-1.13-2.417-2.261c0-1.13 1.208-2.261 2.417-2.261 1.612 0 2.418 1.131 2.418 2.261zM4.836 387.404c0 1.131-1.21 2.261-2.418 2.261-1.21 0-2.418-1.13-2.418-2.261 0-1.13 1.209-2.261 2.418-2.261s2.418 1.131 2.418 2.261zm51.579 0c0 1.131-1.21 2.261-2.418 2.261-1.209 0-2.418-1.13-2.418-2.261 0-1.13 1.209-2.261 2.418-2.261s2.418 1.131 2.418 2.261zm51.579 0c0 1.131-1.209 2.261-2.418 2.261s-2.418-1.13-2.418-2.261c0-1.13 1.209-2.261 2.418-2.261s2.418 1.131 2.418 2.261zm51.58 0c0 1.131-1.209 2.261-2.418 2.261s-2.418-1.13-2.418-2.261c0-1.13 1.209-2.261 2.418-2.261s2.418 1.131 2.418 2.261zm51.176 0c0 1.131-1.209 2.261-2.418 2.261s-2.418-1.13-2.418-2.261c0-1.13 1.209-2.261 2.418-2.261s2.418 1.131 2.418 2.261zm51.58 0c0 1.131-1.209 2.261-2.418 2.261s-2.418-1.13-2.418-2.261c0-1.13 1.209-2.261 2.418-2.261s2.418 1.131 2.418 2.261zm51.579 0c0 1.131-1.209 2.261-2.418 2.261s-2.418-1.13-2.418-2.261c0-1.13 1.209-2.261 2.418-2.261s2.418 1.131 2.418 2.261zm51.176 0c0 1.131-1.209 2.261-2.418 2.261s-2.417-1.13-2.417-2.261c0-1.13 1.208-2.261 2.417-2.261 1.612 0 2.418 1.131 2.418 2.261zm51.579 0c0 1.131-1.209 2.261-2.418 2.261-1.208 0-2.417-1.13-2.417-2.261 0-1.13 1.209-2.261 2.417-2.261 1.209 0 2.418 1.131 2.418 2.261zm51.58 0c0 1.131-1.209 2.261-2.418 2.261s-2.418-1.13-2.418-2.261c0-1.13 1.209-2.261 2.418-2.261s2.418 1.131 2.418 2.261zm51.579 0c0 1.131-1.209 2.261-2.417 2.261-1.209 0-2.418-1.13-2.418-2.261 0-1.13 1.209-2.261 2.418-2.261 1.208 0 2.417 1.131 2.417 2.261zm51.177 0c0 1.131-1.209 2.261-2.418 2.261s-2.417-1.13-2.417-2.261c0-1.13 1.208-2.261 2.417-2.261 1.612 0 2.418 1.131 2.418 2.261zM4.836 435.641c0 1.131-1.21 2.262-2.418 2.262-1.21 0-2.418-1.131-2.418-2.262 0-1.13 1.209-2.261 2.418-2.261s2.418.754 2.418 2.261zm51.579 0c0 1.131-1.21 2.262-2.418 2.262-1.209 0-2.418-1.131-2.418-2.262 0-1.13 1.209-2.261 2.418-2.261s2.418.754 2.418 2.261zm51.579 0c0 1.131-1.209 2.262-2.418 2.262s-2.418-1.131-2.418-2.262c0-1.13 1.209-2.261 2.418-2.261s2.418.754 2.418 2.261zm51.58 0c0 1.131-1.209 2.262-2.418 2.262s-2.418-1.131-2.418-2.262c0-1.13 1.209-2.261 2.418-2.261s2.418.754 2.418 2.261zm51.176 0c0 1.131-1.209 2.262-2.418 2.262s-2.418-1.131-2.418-2.262c0-1.13 1.209-2.261 2.418-2.261s2.418.754 2.418 2.261zm51.58 0c0 1.131-1.209 2.262-2.418 2.262s-2.418-1.131-2.418-2.262c0-1.13 1.209-2.261 2.418-2.261s2.418.754 2.418 2.261zm51.579 0c0 1.131-1.209 2.262-2.418 2.262s-2.418-1.131-2.418-2.262c0-1.13 1.209-2.261 2.418-2.261s2.418.754 2.418 2.261zm51.176 0c0 1.131-1.209 2.262-2.418 2.262s-2.417-1.131-2.417-2.262c0-1.13 1.208-2.261 2.417-2.261 1.612 0 2.418.754 2.418 2.261zm51.579 0c0 1.131-1.209 2.262-2.418 2.262-1.208 0-2.417-1.131-2.417-2.262 0-1.13 1.209-2.261 2.417-2.261 1.209 0 2.418.754 2.418 2.261zm51.58 0c0 1.131-1.209 2.262-2.418 2.262s-2.418-1.131-2.418-2.262c0-1.13 1.209-2.261 2.418-2.261s2.418.754 2.418 2.261zm51.579 0c0 1.131-1.209 2.262-2.417 2.262-1.209 0-2.418-1.131-2.418-2.262 0-1.13 1.209-2.261 2.418-2.261 1.208 0 2.417.754 2.417 2.261zm51.177 0c0 1.131-1.209 2.262-2.418 2.262s-2.417-1.131-2.417-2.262c0-1.13 1.208-2.261 2.417-2.261 1.612 0 2.418.754 2.418 2.261zM4.836 483.502c0 1.13-1.21 2.261-2.418 2.261-1.21 0-2.418-.754-2.418-2.261 0-1.131 1.209-2.261 2.418-2.261s2.418 1.13 2.418 2.261zm51.579 0c0 1.13-1.21 2.261-2.418 2.261-1.209 0-2.418-1.131-2.418-2.261 0-1.131 1.209-2.261 2.418-2.261s2.418 1.13 2.418 2.261zm51.579 0c0 1.13-1.209 2.261-2.418 2.261s-2.418-1.131-2.418-2.261c0-1.131 1.209-2.261 2.418-2.261s2.418 1.13 2.418 2.261zm51.58 0c0 1.13-1.209 2.261-2.418 2.261s-2.418-1.131-2.418-2.261c0-1.131 1.209-2.261 2.418-2.261s2.418 1.13 2.418 2.261zm51.176 0c0 1.13-1.209 2.261-2.418 2.261s-2.418-1.131-2.418-2.261c0-1.131 1.209-2.261 2.418-2.261s2.418 1.13 2.418 2.261zm51.58 0c0 1.13-1.209 2.261-2.418 2.261s-2.418-1.131-2.418-2.261c0-1.131 1.209-2.261 2.418-2.261s2.418 1.13 2.418 2.261zm51.579 0c0 1.13-1.209 2.261-2.418 2.261s-2.418-1.131-2.418-2.261c0-1.131 1.209-2.261 2.418-2.261s2.418 1.13 2.418 2.261zm51.176 0c0 1.13-1.209 2.261-2.418 2.261s-2.417-1.131-2.417-2.261c0-1.131 1.208-2.261 2.417-2.261 1.612 0 2.418 1.13 2.418 2.261zm51.579 0c0 1.13-1.209 2.261-2.418 2.261-1.208 0-2.417-1.131-2.417-2.261 0-1.131 1.209-2.261 2.417-2.261 1.209 0 2.418 1.13 2.418 2.261zm51.58 0c0 1.13-1.209 2.261-2.418 2.261s-2.418-1.131-2.418-2.261c0-1.131 1.209-2.261 2.418-2.261s2.418 1.13 2.418 2.261zm51.579 0c0 1.13-1.209 2.261-2.417 2.261-1.209 0-2.418-1.131-2.418-2.261 0-1.131 1.209-2.261 2.418-2.261 1.208 0 2.417 1.13 2.417 2.261zm51.177 0c0 1.13-1.209 2.261-2.418 2.261s-2.417-1.131-2.417-2.261c0-1.131 1.208-2.261 2.417-2.261 1.612 0 2.418 1.13 2.418 2.261zM4.836 531.739c0 1.13-1.21 2.261-2.418 2.261-1.21 0-2.418-.754-2.418-2.261 0-1.131 1.209-2.261 2.418-2.261s2.418 1.13 2.418 2.261zm51.579 0c0 1.13-1.21 2.261-2.418 2.261-1.209 0-2.418-1.131-2.418-2.261 0-1.131 1.209-2.261 2.418-2.261s2.418 1.13 2.418 2.261zm51.579 0c0 1.13-1.209 2.261-2.418 2.261s-2.418-1.131-2.418-2.261c0-1.131 1.209-2.261 2.418-2.261s2.418 1.13 2.418 2.261zm51.58 0c0 1.13-1.209 2.261-2.418 2.261s-2.418-1.131-2.418-2.261c0-1.131 1.209-2.261 2.418-2.261s2.418 1.13 2.418 2.261zm51.176 0c0 1.13-1.209 2.261-2.418 2.261s-2.418-1.131-2.418-2.261c0-1.131 1.209-2.261 2.418-2.261s2.418 1.13 2.418 2.261zm51.58 0c0 1.13-1.209 2.261-2.418 2.261s-2.418-1.131-2.418-2.261c0-1.131 1.209-2.261 2.418-2.261s2.418 1.13 2.418 2.261zm51.579 0c0 1.13-1.209 2.261-2.418 2.261s-2.418-1.131-2.418-2.261c0-1.131 1.209-2.261 2.418-2.261s2.418 1.13 2.418 2.261zm51.176 0c0 1.13-1.209 2.261-2.418 2.261s-2.417-1.131-2.417-2.261c0-1.131 1.208-2.261 2.417-2.261 1.612 0 2.418 1.13 2.418 2.261zm51.579 0c0 1.13-1.209 2.261-2.418 2.261-1.208 0-2.417-1.131-2.417-2.261 0-1.131 1.209-2.261 2.417-2.261 1.209 0 2.418 1.13 2.418 2.261zm51.58 0c0 1.13-1.209 2.261-2.418 2.261s-2.418-1.131-2.418-2.261c0-1.131 1.209-2.261 2.418-2.261s2.418 1.13 2.418 2.261zm51.579 0c0 1.13-1.209 2.261-2.417 2.261-1.209 0-2.418-1.131-2.418-2.261 0-1.131 1.209-2.261 2.418-2.261 1.208 0 2.417 1.13 2.417 2.261zm51.177 0c0 1.13-1.209 2.261-2.418 2.261s-2.417-1.131-2.417-2.261c0-1.131 1.208-2.261 2.417-2.261 1.612 0 2.418 1.13 2.418 2.261z" fill="#E5E5E5"/></svg>