<svg width="745" height="836" fill="none" xmlns="http://www.w3.org/2000/svg"><path d="M6.31 3.541c0 2.36-1.052 3.541-3.155 3.541C1.052 7.082 0 5.902 0 3.541 0 1.771 1.577 0 3.155 0c1.577 0 3.154 1.77 3.154 3.541zm67.296 0c0 1.77-1.577 3.541-3.154 3.541-1.578 0-3.155-1.77-3.155-3.541C67.297 1.771 68.35 0 70.452 0c1.577 0 3.154 1.77 3.154 3.541zm67.297 0c0 1.77-1.577 3.541-3.154 3.541-1.578 0-3.155-1.77-3.155-3.541 0-1.77 1.577-3.541 3.155-3.541 1.577 0 3.154 1.77 3.154 3.541zm67.298 0c0 1.77-1.578 3.541-3.155 3.541-1.577 0-3.155-1.77-3.155-3.541 0-1.77 1.578-3.541 3.155-3.541 1.577 0 3.155 1.77 3.155 3.541zm66.771 0c0 1.77-1.578 3.541-3.155 3.541-1.577 0-3.154-1.77-3.154-3.541 0-1.77 1.577-3.541 3.154-3.541s3.155 1.77 3.155 3.541zm67.297 0c0 1.77-1.577 3.541-3.155 3.541-1.577 0-3.154-1.18-3.154-3.541 0-1.77 1.577-3.541 3.154-3.541 1.578 0 3.155 1.77 3.155 3.541zm67.297 0c0 1.77-1.577 3.541-3.155 3.541-1.577 0-3.68-1.18-3.68-3.541 0-1.77 1.577-3.541 3.155-3.541 1.577 0 3.68 1.77 3.68 3.541zm66.771 0c0 1.77-1.577 3.541-3.154 3.541s-3.155-1.77-3.155-3.541c0-1.77 1.578-3.541 3.155-3.541 2.103 0 3.154 1.77 3.154 3.541zm67.298 0c0 1.77-1.578 3.541-3.155 3.541-1.577 0-3.155-1.77-3.155-3.541 0-1.77 1.578-3.541 3.155-3.541 1.577 0 3.155 1.77 3.155 3.541zm67.297 0c0 1.77-1.578 3.541-3.155 3.541-1.577 0-3.155-1.77-3.155-3.541 0-1.77 1.578-3.541 3.155-3.541 1.577 0 3.155 1.77 3.155 3.541zm67.297 0c0 1.77-1.578 3.541-3.155 3.541-1.577 0-3.155-1.77-3.155-3.541 0-1.77 1.578-3.541 3.155-3.541 1.577 0 3.155 1.77 3.155 3.541zm66.771 0c0 1.77-1.577 3.541-3.154 3.541-1.578 0-3.155-1.77-3.155-3.541 0-1.77 1.577-3.541 3.155-3.541C743.949 0 745 1.77 745 3.541zM6.31 79.084c0 1.77-1.052 3.54-3.155 3.54-2.103 0-3.155-1.77-3.155-3.54 0-1.771 1.577-3.541 3.155-3.541 1.577 0 3.154 1.18 3.154 3.54zm67.296 0c0 1.77-1.577 3.54-3.154 3.54-1.578 0-3.155-1.77-3.155-3.54 0-1.771 1.577-3.541 3.155-3.541 1.577 0 3.154 1.18 3.154 3.54zm67.297 0c0 1.77-1.577 3.54-3.154 3.54-1.578 0-3.155-1.77-3.155-3.54 0-1.771 1.577-3.541 3.155-3.541 1.577 0 3.154 1.18 3.154 3.54zm67.298 0c0 1.77-1.578 3.54-3.155 3.54-1.577 0-3.155-1.77-3.155-3.54 0-1.771 1.578-3.541 3.155-3.541 1.577 0 3.155 1.18 3.155 3.54zm66.771 0c0 1.77-1.578 3.54-3.155 3.54-1.577 0-3.154-1.77-3.154-3.54 0-1.771 1.577-3.541 3.154-3.541s3.155 1.18 3.155 3.54zm67.297 0c0 1.77-1.577 3.54-3.155 3.54-1.577 0-3.154-1.77-3.154-3.54 0-1.771 1.577-3.541 3.154-3.541 1.578 0 3.155 1.18 3.155 3.54zm67.297 0c0 1.77-1.577 3.54-3.154 3.54-1.578 0-3.155-1.77-3.155-3.54 0-1.771 1.577-3.541 3.155-3.541 1.577 0 3.154 1.18 3.154 3.54zm66.771 0c0 1.77-1.577 3.54-3.154 3.54s-3.155-1.77-3.155-3.54c0-1.771 1.578-3.541 3.155-3.541 2.103 0 3.154 1.18 3.154 3.54zm67.298 0c0 1.77-1.578 3.54-3.155 3.54-1.577 0-3.155-1.77-3.155-3.54 0-1.771 1.578-3.541 3.155-3.541 1.577 0 3.155 1.18 3.155 3.54zm67.297 0c0 1.77-1.578 3.54-3.155 3.54-1.577 0-3.155-1.77-3.155-3.54 0-1.771 1.578-3.541 3.155-3.541 1.577 0 3.155 1.18 3.155 3.54zm67.297 0c0 1.77-1.578 3.54-3.155 3.54-1.577 0-3.155-1.77-3.155-3.54 0-1.771 1.578-3.541 3.155-3.541 1.577 0 3.155 1.18 3.155 3.54zm66.771 0c0 1.77-1.577 3.54-3.154 3.54-1.578 0-3.155-1.77-3.155-3.54 0-1.771 1.577-3.541 3.155-3.541 2.103 0 3.154 1.18 3.154 3.54zM6.31 154.627c0 1.77-1.578 3.541-3.155 3.541-1.578 0-3.155-1.771-3.155-3.541 0-1.771 1.577-3.542 3.155-3.542 1.577 0 3.154 1.181 3.154 3.542zm67.296-.002c0 1.771-1.577 3.541-3.154 3.541-1.578 0-3.155-1.77-3.155-3.541 0-1.77 1.577-3.541 3.155-3.541 1.577-.59 3.154 1.18 3.154 3.541zm67.297 0c0 1.771-1.577 3.541-3.154 3.541-1.578 0-3.155-1.77-3.155-3.541 0-1.77 1.577-3.541 3.155-3.541 1.577-.59 3.154 1.18 3.154 3.541zm67.298 0c0 1.771-1.578 3.541-3.155 3.541-1.577 0-3.155-1.77-3.155-3.541 0-1.77 1.578-3.541 3.155-3.541 1.577-.59 3.155 1.18 3.155 3.541zm66.771 0c0 1.771-1.578 3.541-3.155 3.541-1.577 0-3.154-1.77-3.154-3.541 0-1.77 1.577-3.541 3.154-3.541 1.577-.59 3.155 1.18 3.155 3.541zm67.297.002c0 1.77-1.577 3.541-3.155 3.541-1.577 0-3.154-1.771-3.154-3.541 0-1.771 1.577-3.542 3.154-3.542 1.578 0 3.155 1.181 3.155 3.542zm67.297 0c0 1.77-1.577 3.541-3.154 3.541-1.578 0-3.155-1.771-3.155-3.541 0-1.771 1.577-3.542 3.155-3.542 1.577 0 3.154 1.181 3.154 3.542zm66.771-.002c0 1.771-1.577 3.541-3.154 3.541s-3.155-1.77-3.155-3.541c0-1.77 1.578-3.541 3.155-3.541 2.103-.59 3.154 1.18 3.154 3.541zm67.298 0c0 1.771-1.578 3.541-3.155 3.541-1.577 0-3.155-1.77-3.155-3.541 0-1.77 1.578-3.541 3.155-3.541 1.577-.59 3.155 1.18 3.155 3.541zm67.297 0c0 1.771-1.578 3.541-3.155 3.541-1.577 0-3.155-1.77-3.155-3.541 0-1.77 1.578-3.541 3.155-3.541 1.577-.59 3.155 1.18 3.155 3.541zm67.297 0c0 1.771-1.578 3.541-3.155 3.541-1.577 0-3.155-1.77-3.155-3.541 0-1.77 1.578-3.541 3.155-3.541 1.577-.59 3.155 1.18 3.155 3.541zm66.771 0c0 1.771-1.577 3.541-3.154 3.541-1.578 0-3.155-1.77-3.155-3.541 0-1.77 1.577-3.541 3.155-3.541 2.103-.59 3.154 1.18 3.154 3.541zM6.31 229.578c0 1.771-1.578 3.541-3.155 3.541-1.578 0-3.155-1.18-3.155-3.541 0-1.77 1.577-3.541 3.155-3.541 1.577 0 3.154 1.771 3.154 3.541zm67.296 0c0 1.771-1.577 3.541-3.154 3.541-1.578 0-3.155-1.77-3.155-3.541 0-1.77 1.577-3.541 3.155-3.541 1.577 0 3.154 1.771 3.154 3.541zm67.297 0c0 1.771-1.577 3.541-3.154 3.541-1.578 0-3.155-1.77-3.155-3.541 0-1.77 1.577-3.541 3.155-3.541 1.577 0 3.154 1.771 3.154 3.541zm67.298 0c0 1.771-1.578 3.541-3.155 3.541-1.577 0-3.155-1.77-3.155-3.541 0-1.77 1.578-3.541 3.155-3.541 1.577 0 3.155 1.771 3.155 3.541zm66.771 0c0 1.771-1.578 3.541-3.155 3.541-1.577 0-3.154-1.77-3.154-3.541 0-1.77 1.577-3.541 3.154-3.541s3.155 1.771 3.155 3.541zm67.297 0c0 1.771-1.577 3.541-3.155 3.541-1.577 0-3.154-1.77-3.154-3.541 0-1.77 1.577-3.541 3.154-3.541 1.578 0 3.155 1.771 3.155 3.541zm67.297 0c0 1.771-1.577 3.541-3.154 3.541-1.578 0-3.155-1.77-3.155-3.541 0-1.77 1.577-3.541 3.155-3.541 1.577 0 3.154 1.771 3.154 3.541zm66.771 0c0 1.771-1.577 3.541-3.154 3.541s-3.155-1.77-3.155-3.541c0-1.77 1.578-3.541 3.155-3.541 2.103 0 3.154 1.771 3.154 3.541zm67.298 0c0 1.771-1.578 3.541-3.155 3.541-1.577 0-3.155-1.77-3.155-3.541 0-1.77 1.578-3.541 3.155-3.541 1.577 0 3.155 1.771 3.155 3.541zm67.297 0c0 1.771-1.578 3.541-3.155 3.541-1.577 0-3.155-1.77-3.155-3.541 0-1.77 1.578-3.541 3.155-3.541 1.577 0 3.155 1.771 3.155 3.541zm67.297 0c0 1.771-1.578 3.541-3.155 3.541-1.577 0-3.155-1.77-3.155-3.541 0-1.77 1.578-3.541 3.155-3.541 1.577 0 3.155 1.771 3.155 3.541zm66.771 0c0 1.771-1.577 3.541-3.154 3.541-1.578 0-3.155-1.77-3.155-3.541 0-1.77 1.577-3.541 3.155-3.541 2.103 0 3.154 1.771 3.154 3.541zM6.31 305.121c0 1.77-1.578 3.541-3.155 3.541-1.578 0-3.155-1.771-3.155-3.541 0-1.771 1.577-3.541 3.155-3.541 1.577 0 3.154 1.77 3.154 3.541zm67.296 0c0 1.77-1.577 3.541-3.154 3.541-1.578 0-3.155-1.771-3.155-3.541 0-1.771 1.577-3.541 3.155-3.541 1.577 0 3.154 1.77 3.154 3.541zm67.297 0c0 1.77-1.577 3.541-3.154 3.541-1.578 0-3.155-1.771-3.155-3.541 0-1.771 1.577-3.541 3.155-3.541 1.577 0 3.154 1.77 3.154 3.541zm67.298 0c0 1.77-1.578 3.541-3.155 3.541-1.577 0-3.155-1.771-3.155-3.541 0-1.771 1.578-3.541 3.155-3.541 1.577 0 3.155 1.77 3.155 3.541zm66.771 0c0 1.77-1.578 3.541-3.155 3.541-1.577 0-3.154-1.771-3.154-3.541 0-1.771 1.577-3.541 3.154-3.541s3.155 1.77 3.155 3.541zm67.297 0c0 1.77-1.577 3.541-3.155 3.541-1.577 0-3.154-1.771-3.154-3.541 0-1.771 1.577-3.541 3.154-3.541 1.578 0 3.155 1.77 3.155 3.541zm67.297 0c0 1.77-1.577 3.541-3.154 3.541-1.578 0-3.155-1.771-3.155-3.541 0-1.771 1.577-3.541 3.155-3.541 1.577 0 3.154 1.77 3.154 3.541zm66.771 0c0 1.77-1.577 3.541-3.154 3.541s-3.155-1.771-3.155-3.541c0-1.771 1.578-3.541 3.155-3.541 2.103 0 3.154 1.77 3.154 3.541zm67.298 0c0 1.77-1.578 3.541-3.155 3.541-1.577 0-3.155-1.771-3.155-3.541 0-1.771 1.578-3.541 3.155-3.541 1.577 0 3.155 1.77 3.155 3.541zm67.297 0c0 1.77-1.578 3.541-3.155 3.541-1.577 0-3.155-1.771-3.155-3.541 0-1.771 1.578-3.541 3.155-3.541 1.577 0 3.155 1.77 3.155 3.541zm67.297 0c0 1.77-1.578 3.541-3.155 3.541-1.577 0-3.155-1.771-3.155-3.541 0-1.771 1.578-3.541 3.155-3.541 1.577 0 3.155 1.77 3.155 3.541zm66.771 0c0 1.77-1.577 3.541-3.154 3.541-1.578 0-3.155-1.771-3.155-3.541 0-1.771 1.577-3.541 3.155-3.541 2.103 0 3.154 1.77 3.154 3.541zM6.31 380.662c0 1.771-1.578 3.541-3.155 3.541-1.578 0-3.155-1.77-3.155-3.541 0-1.77 1.577-3.541 3.155-3.541 1.577 0 3.154 1.18 3.154 3.541zm67.296 0c0 1.771-1.577 3.541-3.154 3.541-1.578 0-3.155-1.77-3.155-3.541 0-1.77 1.577-3.541 3.155-3.541 1.577 0 3.154 1.18 3.154 3.541zm67.297 0c0 1.771-1.577 3.541-3.154 3.541-1.578 0-3.155-1.77-3.155-3.541 0-1.77 1.577-3.541 3.155-3.541 1.577 0 3.154 1.18 3.154 3.541zm67.298 0c0 1.771-1.578 3.541-3.155 3.541-1.577 0-3.155-1.77-3.155-3.541 0-1.77 1.578-3.541 3.155-3.541 1.577 0 3.155 1.18 3.155 3.541zm66.771 0c0 1.771-1.578 3.541-3.155 3.541-1.577 0-3.154-1.77-3.154-3.541 0-1.77 1.577-3.541 3.154-3.541s3.155 1.18 3.155 3.541zm67.297 0c0 1.771-1.577 3.541-3.155 3.541-1.577 0-3.154-1.77-3.154-3.541 0-1.77 1.577-3.541 3.154-3.541 1.578 0 3.155 1.18 3.155 3.541zm67.297 0c0 1.771-1.577 3.541-3.154 3.541-1.578 0-3.155-1.77-3.155-3.541 0-1.77 1.577-3.541 3.155-3.541 1.577 0 3.154 1.18 3.154 3.541zm66.771 0c0 1.771-1.577 3.541-3.154 3.541s-3.155-1.77-3.155-3.541c0-1.77 1.578-3.541 3.155-3.541 2.103 0 3.154 1.18 3.154 3.541zm67.298 0c0 1.771-1.578 3.541-3.155 3.541-1.577 0-3.155-1.77-3.155-3.541 0-1.77 1.578-3.541 3.155-3.541 1.577 0 3.155 1.18 3.155 3.541zm67.297 0c0 1.771-1.578 3.541-3.155 3.541-1.577 0-3.155-1.77-3.155-3.541 0-1.77 1.578-3.541 3.155-3.541 1.577 0 3.155 1.18 3.155 3.541zm67.297 0c0 1.771-1.578 3.541-3.155 3.541-1.577 0-3.155-1.77-3.155-3.541 0-1.77 1.578-3.541 3.155-3.541 1.577 0 3.155 1.18 3.155 3.541zm66.771 0c0 1.771-1.577 3.541-3.154 3.541-1.578 0-3.155-1.77-3.155-3.541 0-1.77 1.577-3.541 3.155-3.541 2.103 0 3.154 1.18 3.154 3.541zM6.31 456.205c0 1.771-1.578 3.541-3.155 3.541-1.578 0-3.155-1.77-3.155-3.541 0-1.77 1.577-3.541 3.155-3.541 1.577 0 3.154 1.18 3.154 3.541zm67.296.001c0 1.77-1.577 3.541-3.154 3.541-1.578 0-3.155-1.771-3.155-3.541 0-1.771 1.577-3.541 3.155-3.541 1.577-.59 3.154 1.18 3.154 3.541zm67.297 0c0 1.77-1.577 3.541-3.154 3.541-1.578 0-3.155-1.771-3.155-3.541 0-1.771 1.577-3.541 3.155-3.541 1.577-.59 3.154 1.18 3.154 3.541zm67.298 0c0 1.77-1.578 3.541-3.155 3.541-1.577 0-3.155-1.771-3.155-3.541 0-1.771 1.578-3.541 3.155-3.541 1.577-.59 3.155 1.18 3.155 3.541zm66.771 0c0 1.77-1.578 3.541-3.155 3.541-1.577 0-3.154-1.771-3.154-3.541 0-1.771 1.577-3.541 3.154-3.541 1.577-.59 3.155 1.18 3.155 3.541zm67.297-.001c0 1.771-1.577 3.541-3.155 3.541-1.577 0-3.154-1.77-3.154-3.541 0-1.77 1.577-3.541 3.154-3.541 1.578 0 3.155 1.18 3.155 3.541zm67.297 0c0 1.771-1.577 3.541-3.154 3.541-1.578 0-3.155-1.77-3.155-3.541 0-1.77 1.577-3.541 3.155-3.541 1.577 0 3.154 1.18 3.154 3.541zm66.771.001c0 1.77-1.577 3.541-3.154 3.541s-3.155-1.771-3.155-3.541c0-1.771 1.578-3.541 3.155-3.541 2.103-.59 3.154 1.18 3.154 3.541zm67.298 0c0 1.77-1.578 3.541-3.155 3.541-1.577 0-3.155-1.771-3.155-3.541 0-1.771 1.578-3.541 3.155-3.541 1.577-.59 3.155 1.18 3.155 3.541zm67.297 0c0 1.77-1.578 3.541-3.155 3.541-1.577 0-3.155-1.771-3.155-3.541 0-1.771 1.578-3.541 3.155-3.541 1.577-.59 3.155 1.18 3.155 3.541zm67.297 0c0 1.77-1.578 3.541-3.155 3.541-1.577 0-3.155-1.771-3.155-3.541 0-1.771 1.578-3.541 3.155-3.541 1.577-.59 3.155 1.18 3.155 3.541zm66.771 0c0 1.77-1.577 3.541-3.154 3.541-1.578 0-3.155-1.771-3.155-3.541 0-1.771 1.577-3.541 3.155-3.541 2.103-.59 3.154 1.18 3.154 3.541zM6.31 531.157c0 1.771-1.578 3.541-3.155 3.541-1.578 0-3.155-1.18-3.155-3.541 0-1.77 1.577-3.541 3.155-3.541 1.577 0 3.154 1.771 3.154 3.541zm67.296 0c0 1.771-1.577 3.541-3.154 3.541-1.578 0-3.155-1.77-3.155-3.541 0-1.77 1.577-3.541 3.155-3.541 1.577 0 3.154 1.771 3.154 3.541zm67.297 0c0 1.771-1.577 3.541-3.154 3.541-1.578 0-3.155-1.77-3.155-3.541 0-1.77 1.577-3.541 3.155-3.541 1.577 0 3.154 1.771 3.154 3.541zm67.298 0c0 1.771-1.578 3.541-3.155 3.541-1.577 0-3.155-1.77-3.155-3.541 0-1.77 1.578-3.541 3.155-3.541 1.577 0 3.155 1.771 3.155 3.541zm66.771 0c0 1.771-1.578 3.541-3.155 3.541-1.577 0-3.154-1.77-3.154-3.541 0-1.77 1.577-3.541 3.154-3.541s3.155 1.771 3.155 3.541zm67.297 0c0 1.771-1.577 3.541-3.155 3.541-1.577 0-3.154-1.77-3.154-3.541 0-1.77 1.577-3.541 3.154-3.541 1.578 0 3.155 1.771 3.155 3.541zm67.297 0c0 1.771-1.577 3.541-3.154 3.541-1.578 0-3.155-1.77-3.155-3.541 0-1.77 1.577-3.541 3.155-3.541 1.577 0 3.154 1.771 3.154 3.541zm66.771 0c0 1.771-1.577 3.541-3.154 3.541s-3.155-1.77-3.155-3.541c0-1.77 1.578-3.541 3.155-3.541 2.103 0 3.154 1.771 3.154 3.541zm67.298 0c0 1.771-1.578 3.541-3.155 3.541-1.577 0-3.155-1.77-3.155-3.541 0-1.77 1.578-3.541 3.155-3.541 1.577 0 3.155 1.771 3.155 3.541zm67.297 0c0 1.771-1.578 3.541-3.155 3.541-1.577 0-3.155-1.77-3.155-3.541 0-1.77 1.578-3.541 3.155-3.541 1.577 0 3.155 1.771 3.155 3.541zm67.297 0c0 1.771-1.578 3.541-3.155 3.541-1.577 0-3.155-1.77-3.155-3.541 0-1.77 1.578-3.541 3.155-3.541 1.577 0 3.155 1.771 3.155 3.541zm66.771 0c0 1.771-1.577 3.541-3.154 3.541-1.578 0-3.155-1.77-3.155-3.541 0-1.77 1.577-3.541 3.155-3.541 2.103 0 3.154 1.771 3.154 3.541zM6.31 606.7c0 1.77-1.578 3.541-3.155 3.541C1.577 610.241 0 608.47 0 606.7c0-1.771 1.577-3.541 3.155-3.541 1.577 0 3.154 1.77 3.154 3.541zm67.296 0c0 1.77-1.577 3.541-3.154 3.541-1.578 0-3.155-1.771-3.155-3.541 0-1.771 1.577-3.541 3.155-3.541 1.577 0 3.154 1.77 3.154 3.541zm67.297 0c0 1.77-1.577 3.541-3.154 3.541-1.578 0-3.155-1.771-3.155-3.541 0-1.771 1.577-3.541 3.155-3.541 1.577 0 3.154 1.77 3.154 3.541zm67.298 0c0 1.77-1.578 3.541-3.155 3.541-1.577 0-3.155-1.771-3.155-3.541 0-1.771 1.578-3.541 3.155-3.541 1.577 0 3.155 1.77 3.155 3.541zm66.771 0c0 1.77-1.578 3.541-3.155 3.541-1.577 0-3.154-1.771-3.154-3.541 0-1.771 1.577-3.541 3.154-3.541s3.155 1.77 3.155 3.541zm67.297 0c0 1.77-1.577 3.541-3.155 3.541-1.577 0-3.154-1.771-3.154-3.541 0-1.771 1.577-3.541 3.154-3.541 1.578 0 3.155 1.77 3.155 3.541zm67.297 0c0 1.77-1.577 3.541-3.154 3.541-1.578 0-3.155-1.771-3.155-3.541 0-1.771 1.577-3.541 3.155-3.541 1.577 0 3.154 1.77 3.154 3.541zm66.771 0c0 1.77-1.577 3.541-3.154 3.541s-3.155-1.771-3.155-3.541c0-1.771 1.578-3.541 3.155-3.541 2.103 0 3.154 1.77 3.154 3.541zm67.298 0c0 1.77-1.578 3.541-3.155 3.541-1.577 0-3.155-1.771-3.155-3.541 0-1.771 1.578-3.541 3.155-3.541 1.577 0 3.155 1.77 3.155 3.541zm67.297 0c0 1.77-1.578 3.541-3.155 3.541-1.577 0-3.155-1.771-3.155-3.541 0-1.771 1.578-3.541 3.155-3.541 1.577 0 3.155 1.77 3.155 3.541zm67.297 0c0 1.77-1.578 3.541-3.155 3.541-1.577 0-3.155-1.771-3.155-3.541 0-1.771 1.578-3.541 3.155-3.541 1.577 0 3.155 1.77 3.155 3.541zm66.771 0c0 1.77-1.577 3.541-3.154 3.541-1.578 0-3.155-1.771-3.155-3.541 0-1.771 1.577-3.541 3.155-3.541 2.103 0 3.154 1.77 3.154 3.541zM6.31 682.242c0 1.771-1.578 3.541-3.155 3.541-1.578 0-3.155-1.77-3.155-3.541 0-1.77 1.577-3.541 3.155-3.541 1.577 0 3.154 1.181 3.154 3.541zm67.296 0c0 1.771-1.577 3.541-3.154 3.541-1.578 0-3.155-1.77-3.155-3.541 0-1.77 1.577-3.541 3.155-3.541 1.577 0 3.154 1.181 3.154 3.541zm67.297 0c0 1.771-1.577 3.541-3.154 3.541-1.578 0-3.155-1.77-3.155-3.541 0-1.77 1.577-3.541 3.155-3.541 1.577 0 3.154 1.181 3.154 3.541zm67.298 0c0 1.771-1.578 3.541-3.155 3.541-1.577 0-3.155-1.77-3.155-3.541 0-1.77 1.578-3.541 3.155-3.541 1.577 0 3.155 1.181 3.155 3.541zm66.771 0c0 1.771-1.578 3.541-3.155 3.541-1.577 0-3.154-1.77-3.154-3.541 0-1.77 1.577-3.541 3.154-3.541s3.155 1.181 3.155 3.541zm67.297 0c0 1.771-1.577 3.541-3.155 3.541-1.577 0-3.154-1.77-3.154-3.541 0-1.77 1.577-3.541 3.154-3.541 1.578 0 3.155 1.181 3.155 3.541zm67.297 0c0 1.771-1.577 3.541-3.154 3.541-1.578 0-3.155-1.77-3.155-3.541 0-1.77 1.577-3.541 3.155-3.541 1.577 0 3.154 1.181 3.154 3.541zm66.771 0c0 1.771-1.577 3.541-3.154 3.541s-3.155-1.77-3.155-3.541c0-1.77 1.578-3.541 3.155-3.541 2.103 0 3.154 1.181 3.154 3.541zm67.298 0c0 1.771-1.578 3.541-3.155 3.541-1.577 0-3.155-1.77-3.155-3.541 0-1.77 1.578-3.541 3.155-3.541 1.577 0 3.155 1.181 3.155 3.541zm67.297 0c0 1.771-1.578 3.541-3.155 3.541-1.577 0-3.155-1.77-3.155-3.541 0-1.77 1.578-3.541 3.155-3.541 1.577 0 3.155 1.181 3.155 3.541zm67.297 0c0 1.771-1.578 3.541-3.155 3.541-1.577 0-3.155-1.77-3.155-3.541 0-1.77 1.578-3.541 3.155-3.541 1.577 0 3.155 1.181 3.155 3.541zm66.771 0c0 1.771-1.577 3.541-3.154 3.541-1.578 0-3.155-1.77-3.155-3.541 0-1.77 1.577-3.541 3.155-3.541 2.103 0 3.154 1.181 3.154 3.541zM6.31 757.194c0 1.771-1.578 3.541-3.155 3.541-1.578 0-3.155-1.18-3.155-3.541 0-1.77 1.577-3.541 3.155-3.541 1.577 0 3.154 1.771 3.154 3.541zm67.296 0c0 1.771-1.577 3.541-3.154 3.541-1.578 0-3.155-1.77-3.155-3.541 0-1.77 1.577-3.541 3.155-3.541 1.577 0 3.154 1.771 3.154 3.541zm67.297 0c0 1.771-1.577 3.541-3.154 3.541-1.578 0-3.155-1.77-3.155-3.541 0-1.77 1.577-3.541 3.155-3.541 1.577 0 3.154 1.771 3.154 3.541zm67.298 0c0 1.771-1.578 3.541-3.155 3.541-1.577 0-3.155-1.77-3.155-3.541 0-1.77 1.578-3.541 3.155-3.541 1.577 0 3.155 1.771 3.155 3.541zm66.771 0c0 1.771-1.578 3.541-3.155 3.541-1.577 0-3.154-1.77-3.154-3.541 0-1.77 1.577-3.541 3.154-3.541s3.155 1.771 3.155 3.541zm67.297 0c0 1.771-1.577 3.541-3.155 3.541-1.577 0-3.154-1.77-3.154-3.541 0-1.77 1.577-3.541 3.154-3.541 1.578 0 3.155 1.771 3.155 3.541zm67.297 0c0 1.771-1.577 3.541-3.154 3.541-1.578 0-3.155-1.77-3.155-3.541 0-1.77 1.577-3.541 3.155-3.541 1.577 0 3.154 1.771 3.154 3.541zm66.771 0c0 1.771-1.577 3.541-3.154 3.541s-3.155-1.77-3.155-3.541c0-1.77 1.578-3.541 3.155-3.541 2.103 0 3.154 1.771 3.154 3.541zm67.298 0c0 1.771-1.578 3.541-3.155 3.541-1.577 0-3.155-1.77-3.155-3.541 0-1.77 1.578-3.541 3.155-3.541 1.577 0 3.155 1.771 3.155 3.541zm67.297 0c0 1.771-1.578 3.541-3.155 3.541-1.577 0-3.155-1.77-3.155-3.541 0-1.77 1.578-3.541 3.155-3.541 1.577 0 3.155 1.771 3.155 3.541zm67.297 0c0 1.771-1.578 3.541-3.155 3.541-1.577 0-3.155-1.77-3.155-3.541 0-1.77 1.578-3.541 3.155-3.541 1.577 0 3.155 1.771 3.155 3.541zm66.771 0c0 1.771-1.577 3.541-3.154 3.541-1.578 0-3.155-1.77-3.155-3.541 0-1.77 1.577-3.541 3.155-3.541 2.103 0 3.154 1.771 3.154 3.541zM6.31 832.737c0 1.77-1.578 3.541-3.155 3.541-1.578 0-3.155-1.18-3.155-3.541 0-1.771 1.577-3.541 3.155-3.541 1.577 0 3.154 1.77 3.154 3.541zm67.296 0c0 1.77-1.577 3.541-3.154 3.541-1.578 0-3.155-1.771-3.155-3.541 0-1.771 1.577-3.541 3.155-3.541 1.577 0 3.154 1.77 3.154 3.541zm67.297 0c0 1.77-1.577 3.541-3.154 3.541-1.578 0-3.155-1.771-3.155-3.541 0-1.771 1.577-3.541 3.155-3.541 1.577 0 3.154 1.77 3.154 3.541zm67.298 0c0 1.77-1.578 3.541-3.155 3.541-1.577 0-3.155-1.771-3.155-3.541 0-1.771 1.578-3.541 3.155-3.541 1.577 0 3.155 1.77 3.155 3.541zm66.771 0c0 1.77-1.578 3.541-3.155 3.541-1.577 0-3.154-1.771-3.154-3.541 0-1.771 1.577-3.541 3.154-3.541s3.155 1.77 3.155 3.541zm67.297 0c0 1.77-1.577 3.541-3.155 3.541-1.577 0-3.154-1.771-3.154-3.541 0-1.771 1.577-3.541 3.154-3.541 1.578 0 3.155 1.77 3.155 3.541zm67.297 0c0 1.77-1.577 3.541-3.154 3.541-1.578 0-3.155-1.771-3.155-3.541 0-1.771 1.577-3.541 3.155-3.541 1.577 0 3.154 1.77 3.154 3.541zm66.771 0c0 1.77-1.577 3.541-3.154 3.541s-3.155-1.771-3.155-3.541c0-1.771 1.578-3.541 3.155-3.541 2.103 0 3.154 1.77 3.154 3.541zm67.298 0c0 1.77-1.578 3.541-3.155 3.541-1.577 0-3.155-1.771-3.155-3.541 0-1.771 1.578-3.541 3.155-3.541 1.577 0 3.155 1.77 3.155 3.541zm67.297 0c0 1.77-1.578 3.541-3.155 3.541-1.577 0-3.155-1.771-3.155-3.541 0-1.771 1.578-3.541 3.155-3.541 1.577 0 3.155 1.77 3.155 3.541zm67.297 0c0 1.77-1.578 3.541-3.155 3.541-1.577 0-3.155-1.771-3.155-3.541 0-1.771 1.578-3.541 3.155-3.541 1.577 0 3.155 1.77 3.155 3.541zm66.771 0c0 1.77-1.577 3.541-3.154 3.541-1.578 0-3.155-1.771-3.155-3.541 0-1.771 1.577-3.541 3.155-3.541 2.103 0 3.154 1.77 3.154 3.541z" fill="#E5E5E5"/></svg>